<svg width="318" height="48" viewBox="0 0 318 48" fill="none" xmlns="http://www.w3.org/2000/svg">
<path d="M57.4755 13.4217L42.3666 13.4441L19.0431 13.4272C16.3886 13.4253 14.0003 12.3889 11.9555 10.8404C10.425 9.57618 9.2495 8.12314 8.3125 6.38071L4.88574 0.00838176L42.7818 3.2589e-07C46.1094 -0.000736992 49.1791 1.24966 51.5004 3.58844C52.6792 4.76349 53.5649 6.08173 54.3361 7.56088L57.4755 13.4217Z" fill="#55E461"/>
<path d="M69.4682 47.6225L54.3593 47.6449L31.0358 47.628C28.3813 47.6261 25.993 46.5897 23.9482 45.0412C22.4176 43.777 21.2422 42.3239 20.3052 40.5815L16.8784 34.2092L54.7745 34.2008C58.102 34.2001 61.1718 35.4505 63.493 37.7892C64.6719 38.9643 65.5576 40.2825 66.3287 41.7617L69.4682 47.6225Z" fill="#55E461"/>
<path d="M33.4716 30.4637L14.5866 30.3239C11.6324 30.302 8.93238 29.2779 6.72134 27.4003C5.48848 26.2967 4.45624 25.1085 3.66412 23.6456L0 16.8785L19.251 17.0535C22.8002 17.0857 25.9823 18.794 28.2363 21.4344C29.0811 22.4287 29.7054 23.436 30.3133 24.5848L33.4716 30.4637Z" fill="#55E461"/>
<path d="M90.4192 20.1238C90.4192 22.095 90.6984 23.8198 91.2569 25.2982C91.8483 26.7766 92.6203 28.025 93.5731 29.0434C94.5586 30.029 95.6592 30.7682 96.8748 31.261C98.0903 31.7538 99.3388 32.0002 100.62 32.0002C102.591 32.0002 104.447 31.4253 106.189 30.2754C107.93 29.0927 109.228 27.3022 110.082 24.904H117.079C116.455 27.1051 115.568 29.0106 114.418 30.6204C113.301 32.2302 112.004 33.5771 110.525 34.6613C109.08 35.7126 107.503 36.5011 105.794 37.0267C104.119 37.5524 102.411 37.8152 100.669 37.8152C98.5667 37.8152 96.497 37.4374 94.4601 36.6818C92.4232 35.9261 90.6163 34.8091 89.0393 33.3307C87.4624 31.8195 86.1811 29.9633 85.1955 27.7622C84.2428 25.561 83.7664 23.0149 83.7664 20.1238C83.7664 17.2328 84.2428 14.6867 85.1955 12.4855C86.1811 10.2844 87.4624 8.4446 89.0393 6.96621C90.6163 5.45497 92.4232 4.32154 94.4601 3.56593C96.497 2.77745 98.5667 2.38322 100.669 2.38322C102.411 2.38322 104.119 2.64604 105.794 3.17169C107.503 3.69734 109.08 4.50224 110.525 5.58639C112.004 6.63768 113.301 7.98465 114.418 9.62731C115.568 11.2371 116.455 13.1426 117.079 15.3437H110.082C109.655 14.161 109.096 13.1262 108.406 12.2391C107.749 11.3192 106.994 10.5636 106.139 9.97226C105.318 9.38091 104.431 8.93739 103.478 8.64172C102.525 8.34604 101.556 8.1982 100.571 8.1982C99.2895 8.1982 98.0411 8.46102 96.8255 8.98667C95.6099 9.47947 94.5258 10.2187 93.5731 11.2042C92.6203 12.1898 91.8483 13.4383 91.2569 14.9495C90.6984 16.4279 90.4192 18.1527 90.4192 20.1238ZM143.956 12.387V35.5976C143.956 36.1561 143.776 36.616 143.414 36.9774C143.053 37.3388 142.593 37.5195 142.034 37.5195C141.476 37.5195 141.016 37.3224 140.655 36.9282L137.944 34.1685C136.959 35.2855 135.792 36.1233 134.445 36.6818C133.098 37.2403 131.735 37.5195 130.355 37.5195C129.14 37.5195 127.941 37.306 126.758 36.8789C125.608 36.4518 124.573 35.8111 123.653 34.957C122.766 34.0699 122.043 32.9694 121.485 31.6552C120.959 30.3411 120.696 28.797 120.696 27.023L120.549 12.387H126.856V25.791C126.856 26.8751 127.004 27.8279 127.3 28.6492C127.628 29.4377 128.039 30.0947 128.532 30.6204C129.025 31.146 129.583 31.5403 130.207 31.8031C130.864 32.0659 131.521 32.1973 132.179 32.1973C132.868 32.1973 133.526 32.0659 134.15 31.8031C134.807 31.5403 135.398 31.146 135.924 30.6204C136.449 30.0619 136.86 29.3884 137.156 28.5999C137.484 27.8114 137.649 26.8916 137.649 25.8403V12.387H143.956ZM160.723 31.7538C161.972 31.7538 163.105 31.3924 164.124 30.6697C165.142 29.9469 165.898 29.0106 166.39 27.8607H172.994C172.665 29.2405 172.107 30.5218 171.318 31.7045C170.563 32.8872 169.643 33.9057 168.559 34.7599C167.475 35.614 166.259 36.2875 164.912 36.7803C163.598 37.2731 162.202 37.5195 160.723 37.5195C158.982 37.5195 157.339 37.191 155.795 36.5339C154.251 35.8769 152.904 34.9734 151.754 33.8235C150.605 32.6737 149.701 31.3267 149.044 29.7826C148.387 28.2385 148.058 26.5959 148.058 24.8547C148.058 23.1135 148.387 21.4708 149.044 19.9267C149.701 18.3826 150.605 17.0521 151.754 15.9351C152.904 14.7852 154.251 13.8818 155.795 13.2247C157.339 12.5677 158.982 12.2391 160.723 12.2391C162.202 12.2391 163.598 12.4855 164.912 12.9783C166.259 13.4383 167.475 14.1117 168.559 14.9988C169.643 15.853 170.563 16.8714 171.318 18.0541C172.107 19.2368 172.665 20.5181 172.994 21.8979H166.39C165.898 20.748 165.142 19.8117 164.124 19.089C163.105 18.3334 161.972 17.9555 160.723 17.9555C159.836 17.9555 158.999 18.1362 158.21 18.4976C157.454 18.859 156.781 19.3518 156.19 19.976C155.631 20.6002 155.188 21.3394 154.859 22.1936C154.531 23.0149 154.366 23.9019 154.366 24.8547C154.366 25.8074 154.531 26.7109 154.859 27.565C155.188 28.3864 155.631 29.1091 156.19 29.7333C156.781 30.3576 157.454 30.8503 158.21 31.2117C158.999 31.5731 159.836 31.7538 160.723 31.7538ZM199.877 12.387V35.5976C199.877 36.1561 199.696 36.616 199.335 36.9774C198.974 37.3388 198.514 37.5195 197.955 37.5195C197.397 37.5195 196.937 37.3224 196.575 36.9282L193.865 34.1685C192.879 35.2855 191.713 36.1233 190.366 36.6818C189.019 37.2403 187.656 37.5195 186.276 37.5195C185.06 37.5195 183.861 37.306 182.678 36.8789C181.529 36.4518 180.494 35.8111 179.574 34.957C178.687 34.0699 177.964 32.9694 177.406 31.6552C176.88 30.3411 176.617 28.797 176.617 27.023L176.469 12.387H182.777V25.791C182.777 26.8751 182.925 27.8279 183.221 28.6492C183.549 29.4377 183.96 30.0947 184.453 30.6204C184.945 31.146 185.504 31.5403 186.128 31.8031C186.785 32.0659 187.442 32.1973 188.099 32.1973C188.789 32.1973 189.446 32.0659 190.07 31.8031C190.727 31.5403 191.319 31.146 191.844 30.6204C192.37 30.0619 192.781 29.3884 193.076 28.5999C193.405 27.8114 193.569 26.8916 193.569 25.8403V12.387H199.877ZM235.419 23.9184C235.419 21.7501 234.96 20.1403 234.04 19.089C233.153 18.0377 232.151 17.512 231.034 17.512C230.475 17.512 229.917 17.6434 229.358 17.9063C228.832 18.1691 228.356 18.5797 227.929 19.1383C227.535 19.6639 227.206 20.3374 226.943 21.1587C226.681 21.9472 226.549 22.8671 226.549 23.9184L226.697 37.3224H220.389V23.9184C220.389 21.7501 219.929 20.1403 219.009 19.089C218.122 18.0377 217.12 17.512 216.003 17.512C215.445 17.512 214.886 17.6434 214.328 17.9063C213.802 18.1691 213.326 18.5797 212.899 19.1383C212.505 19.6639 212.176 20.3374 211.913 21.1587C211.65 21.9472 211.519 22.8671 211.519 23.9184V37.3224H205.211V14.1117C205.211 13.5861 205.392 13.1426 205.753 12.7812C206.147 12.387 206.607 12.1898 207.133 12.1898C207.692 12.1898 208.168 12.387 208.562 12.7812L211.174 15.4916C212.094 14.4074 213.145 13.5861 214.328 13.0276C215.543 12.4691 216.775 12.1898 218.024 12.1898C219.469 12.1898 220.833 12.5676 222.114 13.3233C223.428 14.0789 224.479 15.2287 225.268 16.7728C226.188 15.2287 227.338 14.0789 228.717 13.3233C230.13 12.5676 231.576 12.1898 233.054 12.1898C234.138 12.1898 235.19 12.4034 236.208 12.8305C237.259 13.2576 238.179 13.9146 238.968 14.8017C239.756 15.6558 240.397 16.74 240.89 18.0541C241.382 19.3682 241.629 20.9123 241.629 22.6864H241.579L241.727 37.3224H235.419V23.9184ZM252.363 15.4916C253.381 14.4074 254.548 13.6025 255.862 13.0769C257.209 12.5184 258.605 12.2391 260.05 12.2391C261.43 12.2391 262.794 12.5019 264.141 13.0276C265.52 13.5532 266.736 14.3417 267.787 15.393C268.839 16.4443 269.693 17.7749 270.35 19.3846C271.007 20.9616 271.335 22.8178 271.335 24.9532C271.335 26.6944 271.007 28.3371 270.35 29.8812C269.693 31.3924 268.789 32.723 267.639 33.8728C266.49 35.0227 265.143 35.9261 263.599 36.5832C262.087 37.2403 260.461 37.5688 258.72 37.5688C256.979 37.5688 255.336 37.2403 253.792 36.5832C252.248 35.9261 250.901 35.0227 249.751 33.8728C248.601 32.723 247.698 31.3924 247.041 29.8812C246.384 28.3371 246.055 26.6944 246.055 24.9532V1.98898H252.363V15.4916ZM258.72 31.8031C259.574 31.8031 260.379 31.6224 261.135 31.261C261.923 30.8996 262.596 30.4233 263.155 29.8319C263.746 29.2077 264.206 28.4849 264.535 27.6636C264.863 26.8094 265.028 25.906 265.028 24.9532C265.028 24.0005 264.863 23.1135 264.535 22.2921C264.206 21.438 263.746 20.6988 263.155 20.0746C262.596 19.4504 261.923 18.9576 261.135 18.5962C260.379 18.2348 259.574 18.0541 258.72 18.0541C257.833 18.0541 257.011 18.2348 256.256 18.5962C255.5 18.9576 254.827 19.4504 254.235 20.0746C253.677 20.6659 253.217 21.3887 252.856 22.2429C252.527 23.0642 252.363 23.9512 252.363 24.904V24.9532C252.363 25.906 252.527 26.8094 252.856 27.6636C253.184 28.4849 253.628 29.2077 254.186 29.8319C254.777 30.4233 255.451 30.8996 256.207 31.261C256.995 31.6224 257.833 31.8031 258.72 31.8031ZM280.794 26.2345C280.958 27.1544 281.237 27.9593 281.632 28.6492C282.059 29.3063 282.568 29.8648 283.159 30.3247C283.751 30.7518 284.408 31.0803 285.131 31.3103C285.853 31.5074 286.576 31.606 287.299 31.606C288.547 31.606 289.73 31.2939 290.847 30.6697C291.997 30.0454 292.818 29.1091 293.311 27.8607L299.323 28.6985C298.929 30.2097 298.321 31.5238 297.5 32.6408C296.711 33.725 295.791 34.6449 294.74 35.4005C293.689 36.1233 292.522 36.6653 291.241 37.0267C289.993 37.3881 288.728 37.5688 287.447 37.5688C285.837 37.5688 284.244 37.306 282.667 36.7803C281.123 36.2218 279.726 35.4005 278.478 34.3163C277.262 33.2322 276.277 31.9016 275.521 30.3247C274.765 28.7478 274.388 26.9244 274.388 24.8547C274.388 22.7849 274.733 20.978 275.423 19.4339C276.145 17.857 277.082 16.5429 278.231 15.4916C279.414 14.4074 280.745 13.6025 282.223 13.0769C283.734 12.5184 285.262 12.2391 286.806 12.2391C288.35 12.2391 289.845 12.5184 291.291 13.0769C292.769 13.6025 294.083 14.4074 295.233 15.4916C296.416 16.5757 297.368 17.9555 298.091 19.631C298.847 21.2737 299.257 23.2284 299.323 25.4953V26.2345H280.794ZM292.473 21.5529C291.98 20.3374 291.225 19.4339 290.206 18.8426C289.188 18.2184 288.104 17.9063 286.954 17.9063C285.804 17.9063 284.72 18.2184 283.701 18.8426C282.683 19.4339 281.895 20.3374 281.336 21.5529H292.473ZM309.542 15.5408C310.527 14.4567 311.677 13.6354 312.991 13.0769C314.305 12.5184 315.669 12.2227 317.081 12.1898V18.0541C314.815 18.0541 313.04 18.5305 311.759 19.4832C310.478 20.4031 309.837 21.8815 309.837 23.9184V37.3224H303.53V14.1117C303.53 13.5861 303.71 13.1426 304.072 12.7812C304.466 12.387 304.926 12.1898 305.451 12.1898C306.01 12.1898 306.486 12.387 306.881 12.7812L309.542 15.5408Z" fill="white"/>
</svg>
