<svg width="800" height="800" viewBox="0 0 800 800" fill="none" xmlns="http://www.w3.org/2000/svg">
<rect width="800" height="800" fill="url(#paint0_linear_306_48)"/>
<path d="M571.053 322.662L457.738 322.829L282.815 322.703C262.906 322.689 244.994 314.915 229.658 303.302C218.179 293.82 209.363 282.923 202.336 269.855L176.636 222.063L460.852 222C485.808 221.994 508.831 231.372 526.24 248.913C535.082 257.726 541.724 267.612 547.508 278.706L571.053 322.662Z" fill="#55E461"/>
<path d="M660.999 579.164L547.684 579.332L372.761 579.206C352.852 579.191 334.94 571.418 319.604 559.804C308.126 550.323 299.31 539.426 292.282 526.358L266.582 478.566L550.798 478.503C575.755 478.497 598.777 487.875 616.187 505.416C625.028 514.229 631.671 524.115 637.454 535.209L660.999 579.164Z" fill="#55E461"/>
<path d="M391.034 450.473L249.398 449.424C227.241 449.26 206.992 441.58 190.409 427.498C181.163 419.221 173.421 410.31 167.481 399.338L140 348.586L284.38 349.898C310.999 350.14 334.865 362.952 351.77 382.754C358.105 390.211 362.788 397.766 367.347 406.382L391.034 450.473Z" fill="#55E461"/>
<defs>
<linearGradient id="paint0_linear_306_48" x1="400" y1="7.61114e-05" x2="-3384" y2="3028.5" gradientUnits="userSpaceOnUse">
<stop stop-color="#04070B"/>
<stop offset="1" stop-color="#326A8D"/>
</linearGradient>
</defs>
</svg>
