<svg width="318" height="48" viewBox="0 0 318 48" fill="none" xmlns="http://www.w3.org/2000/svg">
<path d="M57.4755 13.4217L42.3666 13.4441L19.0431 13.4272C16.3886 13.4253 14.0003 12.3889 11.9555 10.8404C10.425 9.57618 9.2495 8.12314 8.3125 6.38071L4.88574 0.00838176L42.7818 3.2589e-07C46.1094 -0.000736992 49.1791 1.24966 51.5004 3.58844C52.6792 4.76349 53.5649 6.08173 54.3361 7.56088L57.4755 13.4217Z" fill="#55E461"/>
<path d="M69.4687 47.6229L54.3597 47.6452L31.0363 47.6284C28.3818 47.6265 25.9935 46.59 23.9487 45.0415C22.4181 43.7774 21.2427 42.3243 20.3057 40.5819L16.8789 34.2095L54.7749 34.2012C58.1025 34.2004 61.1722 35.4508 63.4935 37.7896C64.6724 38.9647 65.5581 40.2829 66.3292 41.7621L69.4687 47.6229Z" fill="#55E461"/>
<path d="M33.4716 30.4641L14.5866 30.3242C11.6324 30.3023 8.93238 29.2783 6.72133 27.4007C5.48848 26.297 4.45624 25.1089 3.66412 23.646L0 16.8789L19.251 17.0538C22.8002 17.0861 25.9823 18.7944 28.2363 21.4348C29.0811 22.4291 29.7054 23.4363 30.3133 24.5852L33.4716 30.4641Z" fill="#55E461"/>
<path d="M90.4197 20.1242C90.4197 22.0954 90.6989 23.8202 91.2574 25.2986C91.8488 26.7769 92.6208 28.0254 93.5735 29.0438C94.5591 30.0294 95.6597 30.7686 96.8753 31.2614C98.0908 31.7542 99.3392 32.0006 100.621 32.0006C102.592 32.0006 104.448 31.4256 106.189 30.2758C107.93 29.0931 109.228 27.3026 110.082 24.9043H117.08C116.456 27.1055 115.569 29.0109 114.419 30.6207C113.302 32.2305 112.004 33.5775 110.526 34.6617C109.08 35.713 107.503 36.5014 105.795 37.0271C104.119 37.5527 102.411 37.8155 100.67 37.8155C98.5672 37.8155 96.4975 37.4377 94.4606 36.6821C92.4237 35.9265 90.6168 34.8095 89.0398 33.3311C87.4629 31.8199 86.1816 29.9637 85.196 27.7625C84.2433 25.5614 83.7669 23.0153 83.7669 20.1242C83.7669 17.2331 84.2433 14.687 85.196 12.4859C86.1816 10.2847 87.4629 8.44496 89.0398 6.96658C90.6168 5.45534 92.4237 4.32191 94.4606 3.56629C96.4975 2.77782 98.5672 2.38358 100.67 2.38358C102.411 2.38358 104.119 2.64641 105.795 3.17206C107.503 3.6977 109.08 4.5026 110.526 5.58675C112.004 6.63805 113.302 7.98502 114.419 9.62767C115.569 11.2375 116.456 13.1429 117.08 15.3441H110.082C109.655 14.1614 109.097 13.1265 108.407 12.2395C107.75 11.3196 106.994 10.564 106.14 9.97263C105.318 9.38128 104.431 8.93776 103.479 8.64208C102.526 8.34641 101.557 8.19857 100.571 8.19857C99.29 8.19857 98.0416 8.46139 96.826 8.98704C95.6104 9.47983 94.5263 10.219 93.5735 11.2046C92.6208 12.1902 91.8488 13.4386 91.2574 14.9499C90.6989 16.4282 90.4197 18.153 90.4197 20.1242ZM143.957 12.3873V35.598C143.957 36.1565 143.776 36.6164 143.415 36.9778C143.053 37.3392 142.593 37.5199 142.035 37.5199C141.476 37.5199 141.016 37.3228 140.655 36.9285L137.945 34.1689C136.959 35.2859 135.793 36.1236 134.446 36.6821C133.099 37.2406 131.736 37.5199 130.356 37.5199C129.14 37.5199 127.941 37.3063 126.758 36.8792C125.608 36.4521 124.574 35.8115 123.654 34.9573C122.767 34.0703 122.044 32.9697 121.485 31.6556C120.96 30.3415 120.697 28.7974 120.697 27.0233L120.549 12.3873H126.857V25.7913C126.857 26.8755 127.005 27.8282 127.3 28.6496C127.629 29.438 128.04 30.0951 128.532 30.6207C129.025 31.1464 129.584 31.5406 130.208 31.8034C130.865 32.0663 131.522 32.1977 132.179 32.1977C132.869 32.1977 133.526 32.0663 134.15 31.8034C134.807 31.5406 135.399 31.1464 135.924 30.6207C136.45 30.0622 136.861 29.3888 137.156 28.6003C137.485 27.8118 137.649 26.8919 137.649 25.8406V12.3873H143.957ZM160.724 31.7542C161.972 31.7542 163.106 31.3928 164.124 30.67C165.143 29.9473 165.898 29.0109 166.391 27.8611H172.994C172.666 29.2409 172.107 30.5222 171.319 31.7049C170.563 32.8876 169.643 33.906 168.559 34.7602C167.475 35.6144 166.26 36.2879 164.913 36.7807C163.598 37.2735 162.202 37.5199 160.724 37.5199C158.983 37.5199 157.34 37.1913 155.796 36.5343C154.252 35.8772 152.905 34.9738 151.755 33.8239C150.605 32.6741 149.702 31.3271 149.045 29.783C148.387 28.2389 148.059 26.5962 148.059 24.855C148.059 23.1138 148.387 21.4712 149.045 19.9271C149.702 18.383 150.605 17.0525 151.755 15.9354C152.905 14.7856 154.252 13.8821 155.796 13.2251C157.34 12.568 158.983 12.2395 160.724 12.2395C162.202 12.2395 163.598 12.4859 164.913 12.9787C166.26 13.4386 167.475 14.1121 168.559 14.9991C169.643 15.8533 170.563 16.8718 171.319 18.0545C172.107 19.2372 172.666 20.5184 172.994 21.8983H166.391C165.898 20.7484 165.143 19.8121 164.124 19.0893C163.106 18.3337 161.972 17.9559 160.724 17.9559C159.837 17.9559 158.999 18.1366 158.211 18.498C157.455 18.8594 156.781 19.3522 156.19 19.9764C155.632 20.6006 155.188 21.3398 154.86 22.1939C154.531 23.0153 154.367 23.9023 154.367 24.855C154.367 25.8078 154.531 26.7112 154.86 27.5654C155.188 28.3867 155.632 29.1095 156.19 29.7337C156.781 30.3579 157.455 30.8507 158.211 31.2121C158.999 31.5735 159.837 31.7542 160.724 31.7542ZM199.878 12.3873V35.598C199.878 36.1565 199.697 36.6164 199.335 36.9778C198.974 37.3392 198.514 37.5199 197.956 37.5199C197.397 37.5199 196.937 37.3228 196.576 36.9285L193.865 34.1689C192.88 35.2859 191.714 36.1236 190.367 36.6821C189.02 37.2406 187.656 37.5199 186.276 37.5199C185.061 37.5199 183.862 37.3063 182.679 36.8792C181.529 36.4521 180.494 35.8115 179.574 34.9573C178.687 34.0703 177.965 32.9697 177.406 31.6556C176.88 30.3415 176.618 28.7974 176.618 27.0233L176.47 12.3873H182.778V25.7913C182.778 26.8755 182.925 27.8282 183.221 28.6496C183.55 29.438 183.96 30.0951 184.453 30.6207C184.946 31.1464 185.504 31.5406 186.129 31.8034C186.786 32.0663 187.443 32.1977 188.1 32.1977C188.79 32.1977 189.447 32.0663 190.071 31.8034C190.728 31.5406 191.319 31.1464 191.845 30.6207C192.371 30.0622 192.781 29.3888 193.077 28.6003C193.405 27.8118 193.57 26.8919 193.57 25.8406V12.3873H199.878ZM235.42 23.9187C235.42 21.7504 234.96 20.1406 234.04 19.0893C233.153 18.038 232.151 17.5124 231.034 17.5124C230.476 17.5124 229.917 17.6438 229.359 17.9066C228.833 18.1695 228.357 18.5801 227.929 19.1386C227.535 19.6643 227.207 20.3378 226.944 21.1591C226.681 21.9475 226.55 22.8674 226.55 23.9187L226.698 37.3228H220.39V23.9187C220.39 21.7504 219.93 20.1406 219.01 19.0893C218.123 18.038 217.121 17.5124 216.004 17.5124C215.445 17.5124 214.887 17.6438 214.328 17.9066C213.803 18.1695 213.326 18.5801 212.899 19.1386C212.505 19.6643 212.176 20.3378 211.914 21.1591C211.651 21.9475 211.519 22.8674 211.519 23.9187V37.3228H205.212V14.1121C205.212 13.5865 205.392 13.1429 205.754 12.7816C206.148 12.3873 206.608 12.1902 207.134 12.1902C207.692 12.1902 208.168 12.3873 208.563 12.7816L211.174 15.4919C212.094 14.4078 213.146 13.5865 214.328 13.028C215.544 12.4695 216.776 12.1902 218.024 12.1902C219.47 12.1902 220.833 12.568 222.115 13.3236C223.429 14.0793 224.48 15.2291 225.268 16.7732C226.188 15.2291 227.338 14.0793 228.718 13.3236C230.131 12.568 231.576 12.1902 233.055 12.1902C234.139 12.1902 235.19 12.4038 236.208 12.8308C237.26 13.2579 238.18 13.915 238.968 14.802C239.757 15.6562 240.397 16.7403 240.89 18.0545C241.383 19.3686 241.629 20.9127 241.629 22.6867H241.58L241.728 37.3228H235.42V23.9187ZM252.363 15.4919C253.382 14.4078 254.548 13.6029 255.862 13.0772C257.209 12.5187 258.605 12.2395 260.051 12.2395C261.431 12.2395 262.794 12.5023 264.141 13.028C265.521 13.5536 266.736 14.3421 267.788 15.3934C268.839 16.4447 269.693 17.7752 270.35 19.385C271.007 20.962 271.336 22.8182 271.336 24.9536C271.336 26.6948 271.007 28.3375 270.35 29.8815C269.693 31.3928 268.79 32.7233 267.64 33.8732C266.49 35.023 265.143 35.9265 263.599 36.5836C262.088 37.2406 260.462 37.5692 258.72 37.5692C256.979 37.5692 255.336 37.2406 253.792 36.5836C252.248 35.9265 250.901 35.023 249.751 33.8732C248.602 32.7233 247.698 31.3928 247.041 29.8815C246.384 28.3375 246.055 26.6948 246.055 24.9536V1.98935H252.363V15.4919ZM258.72 31.8034C259.574 31.8034 260.379 31.6228 261.135 31.2614C261.923 30.9 262.597 30.4236 263.155 29.8323C263.747 29.2081 264.207 28.4853 264.535 27.664C264.864 26.8098 265.028 25.9063 265.028 24.9536C265.028 24.0009 264.864 23.1138 264.535 22.2925C264.207 21.4383 263.747 20.6991 263.155 20.0749C262.597 19.4507 261.923 18.9579 261.135 18.5965C260.379 18.2352 259.574 18.0545 258.72 18.0545C257.833 18.0545 257.012 18.2352 256.256 18.5965C255.501 18.9579 254.827 19.4507 254.236 20.0749C253.677 20.6663 253.217 21.389 252.856 22.2432C252.528 23.0646 252.363 23.9516 252.363 24.9043V24.9536C252.363 25.9063 252.528 26.8098 252.856 27.664C253.185 28.4853 253.628 29.2081 254.187 29.8323C254.778 30.4236 255.451 30.9 256.207 31.2614C256.996 31.6228 257.833 31.8034 258.72 31.8034ZM280.794 26.2349C280.959 27.1547 281.238 27.9596 281.632 28.6496C282.059 29.3066 282.569 29.8651 283.16 30.3251C283.751 30.7522 284.408 31.0807 285.131 31.3107C285.854 31.5078 286.577 31.6063 287.299 31.6063C288.548 31.6063 289.73 31.2942 290.847 30.67C291.997 30.0458 292.819 29.1095 293.311 27.8611L299.324 28.6988C298.929 30.2101 298.322 31.5242 297.5 32.6412C296.712 33.7254 295.792 34.6452 294.741 35.4009C293.689 36.1236 292.523 36.6657 291.242 37.0271C289.993 37.3885 288.728 37.5692 287.447 37.5692C285.837 37.5692 284.244 37.3063 282.667 36.7807C281.123 36.2222 279.727 35.4009 278.478 34.3167C277.263 33.2326 276.277 31.902 275.522 30.3251C274.766 28.7481 274.388 26.9248 274.388 24.855C274.388 22.7853 274.733 20.9784 275.423 19.4343C276.146 17.8573 277.082 16.5432 278.232 15.4919C279.415 14.4078 280.745 13.6029 282.224 13.0772C283.735 12.5187 285.262 12.2395 286.807 12.2395C288.351 12.2395 289.845 12.5187 291.291 13.0772C292.769 13.6029 294.083 14.4078 295.233 15.4919C296.416 16.5761 297.369 17.9559 298.092 19.6314C298.847 21.2741 299.258 23.2288 299.324 25.4957V26.2349H280.794ZM292.474 21.5533C291.981 20.3378 291.225 19.4343 290.207 18.8429C289.188 18.2187 288.104 17.9066 286.954 17.9066C285.805 17.9066 284.72 18.2187 283.702 18.8429C282.684 19.4343 281.895 20.3378 281.337 21.5533H292.474ZM309.542 15.5412C310.528 14.4571 311.678 13.6357 312.992 13.0772C314.306 12.5187 315.669 12.2231 317.082 12.1902V18.0545C314.815 18.0545 313.041 18.5308 311.76 19.4836C310.478 20.4035 309.838 21.8818 309.838 23.9187V37.3228H303.53V14.1121C303.53 13.5865 303.711 13.1429 304.072 12.7816C304.466 12.3873 304.926 12.1902 305.452 12.1902C306.01 12.1902 306.487 12.3873 306.881 12.7816L309.542 15.5412Z" fill="white"/>
</svg>
