<svg width="800" height="800" viewBox="0 0 800 800" fill="none" xmlns="http://www.w3.org/2000/svg">
<rect width="800" height="800" fill="#04070B"/>
<path d="M571.053 322.662L457.738 322.829L282.815 322.703C262.906 322.689 244.994 314.915 229.658 303.302C218.179 293.82 209.363 282.923 202.336 269.855L176.636 222.063L460.852 222C485.808 221.994 508.831 231.372 526.24 248.913C535.082 257.726 541.724 267.612 547.508 278.706L571.053 322.662Z" fill="#55E461"/>
<path d="M660.999 579.164L547.684 579.331L372.76 579.205C352.852 579.191 334.939 571.418 319.604 559.804C308.125 550.323 299.309 539.425 292.282 526.357L266.581 478.565L550.798 478.502C575.754 478.497 598.777 487.875 616.186 505.415C625.027 514.228 631.67 524.115 637.453 535.208L660.999 579.164Z" fill="#55E461"/>
<path d="M391.033 450.473L249.398 449.424C227.241 449.26 206.992 441.58 190.409 427.498C181.163 419.221 173.421 410.31 167.48 399.338L140 348.586L284.38 349.898C310.999 350.14 334.865 362.952 351.769 382.754C358.105 390.211 362.787 397.766 367.346 406.382L391.033 450.473Z" fill="#55E461"/>
</svg>
