<svg width="350" height="350" viewBox="0 0 350 350" fill="none" xmlns="http://www.w3.org/2000/svg">
<circle cx="175" cy="175" r="173.5" fill="#04070B" stroke="#6B7173" stroke-width="3"/>
<path d="M249.185 139.946L199.715 140.019L123.349 139.964C114.657 139.958 106.838 136.564 100.142 131.494C95.1311 127.355 91.2824 122.597 88.2144 116.892L76.9944 96.0274L201.075 96C211.97 95.9976 222.021 100.092 229.622 107.749C233.481 111.597 236.381 115.913 238.906 120.756L249.185 139.946Z" fill="#55E461"/>
<path d="M288.453 251.927L238.983 252L162.616 251.945C153.925 251.939 146.105 248.545 139.41 243.475C134.398 239.336 130.55 234.578 127.482 228.873L116.262 208.009L240.342 207.981C251.237 207.979 261.288 212.073 268.889 219.73C272.749 223.578 275.649 227.894 278.174 232.737L288.453 251.927Z" fill="#55E461"/>
<path d="M170.594 195.745L108.76 195.287C99.0871 195.215 90.2467 191.862 83.0072 185.714C78.9706 182.101 75.5908 178.21 72.9972 173.42L61 151.264L124.032 151.836C135.653 151.942 146.072 157.535 153.452 166.18C156.218 169.436 158.263 172.734 160.253 176.496L170.594 195.745Z" fill="#55E461"/>
</svg>
