<svg width="236" height="106" viewBox="0 0 236 106" fill="none" xmlns="http://www.w3.org/2000/svg">
<path d="M140.622 13.422L125.513 13.4443L102.19 13.4275C99.5351 13.4256 97.1468 12.3891 95.102 10.8406C93.5714 9.57643 92.396 8.12338 91.459 6.38096L88.0322 0.0086259L125.928 0.000244467C129.256 -0.000492851 132.326 1.24991 134.647 3.58868C135.826 4.76373 136.711 6.08197 137.483 7.56113L140.622 13.422Z" fill="#55E461"/>
<path d="M152.614 47.6228L137.505 47.6451L114.182 47.6283C111.527 47.6264 109.139 46.5899 107.094 45.0414C105.564 43.7772 104.388 42.3242 103.451 40.5818L100.024 34.2094L137.92 34.2011C141.248 34.2003 144.318 35.4507 146.639 37.7895C147.818 38.9645 148.704 40.2828 149.475 41.7619L152.614 47.6228Z" fill="#55E461"/>
<path d="M116.618 30.464L97.7331 30.3241C94.7788 30.3022 92.0789 29.2782 89.8678 27.4006C88.635 26.2969 87.6027 25.1088 86.8106 23.6458L83.1465 16.8788L102.397 17.0537C105.947 17.086 109.129 18.7943 111.383 21.4346C112.228 22.4289 112.852 23.4362 113.46 24.5851L116.618 30.464Z" fill="#55E461"/>
<path d="M8.1804 78.2034C8.1804 80.1746 8.45965 81.8994 9.01815 83.3778C9.6095 84.8562 10.3815 86.1046 11.3343 87.123C12.3199 88.1086 13.4205 88.8478 14.636 89.3406C15.8516 89.8334 17.1 90.0798 18.3813 90.0798C20.3524 90.0798 22.2086 89.5049 23.9498 88.355C25.691 87.1723 26.9887 85.3818 27.8429 82.9835H34.8406C34.2164 85.1847 33.3294 87.0902 32.1795 88.7C31.0625 90.3098 29.7648 91.6567 28.2864 92.7409C26.8409 93.7922 25.264 94.5807 23.5556 95.1063C21.8801 95.6319 20.1717 95.8948 18.4305 95.8948C16.3279 95.8948 14.2582 95.517 12.2213 94.7613C10.1844 94.0057 8.37752 92.8887 6.80057 91.4103C5.22363 89.8991 3.94236 88.0429 2.95677 85.8418C2.00403 83.6406 1.52766 81.0945 1.52766 78.2034C1.52766 75.3124 2.00403 72.7663 2.95677 70.5651C3.94236 68.364 5.22363 66.5242 6.80057 65.0458C8.37752 63.5346 10.1844 62.4011 12.2213 61.6455C14.2582 60.857 16.3279 60.4628 18.4305 60.4628C20.1717 60.4628 21.8801 60.7256 23.5556 61.2513C25.264 61.7769 26.8409 62.5818 28.2864 63.666C29.7648 64.7173 31.0625 66.0642 32.1795 67.7069C33.3294 69.3167 34.2164 71.2222 34.8406 73.4233H27.8429C27.4158 72.2406 26.8573 71.2057 26.1674 70.3187C25.5104 69.3988 24.7547 68.6432 23.9006 68.0519C23.0792 67.4605 22.1922 67.017 21.2395 66.7213C20.2867 66.4256 19.3176 66.2778 18.332 66.2778C17.0507 66.2778 15.8023 66.5406 14.5867 67.0663C13.3712 67.5591 12.287 68.2983 11.3343 69.2838C10.3815 70.2694 9.6095 71.5178 9.01815 73.0291C8.45965 74.5075 8.1804 76.2323 8.1804 78.2034ZM61.7176 70.4665V93.6772C61.7176 94.2357 61.5369 94.6956 61.1755 95.057C60.8141 95.4184 60.3542 95.5991 59.7957 95.5991C59.2372 95.5991 58.7772 95.402 58.4158 95.0077L55.7055 92.2481C54.7199 93.3651 53.5536 94.2028 52.2066 94.7613C50.8597 95.3198 49.4963 95.5991 48.1164 95.5991C46.9009 95.5991 45.7017 95.3856 44.519 94.9585C43.3692 94.5314 42.3343 93.8907 41.4144 93.0366C40.5274 92.1495 39.8046 91.049 39.2461 89.7348C38.7205 88.4207 38.4576 86.8766 38.4576 85.1026L38.3098 70.4665H44.6176V83.8706C44.6176 84.9547 44.7654 85.9075 45.0611 86.7288C45.3896 87.5173 45.8003 88.1743 46.2931 88.7C46.7859 89.2256 47.3444 89.6198 47.9686 89.8827C48.6257 90.1455 49.2827 90.2769 49.9398 90.2769C50.6297 90.2769 51.2867 90.1455 51.911 89.8827C52.568 89.6198 53.1594 89.2256 53.685 88.7C54.2107 88.1415 54.6213 87.468 54.917 86.6795C55.2455 85.891 55.4098 84.9711 55.4098 83.9199V70.4665H61.7176ZM78.4845 89.8334C79.733 89.8334 80.8664 89.472 81.8848 88.7492C82.9033 88.0265 83.6589 87.0902 84.1517 85.9403H90.7551C90.4266 87.3201 89.8681 88.6014 89.0796 89.7841C88.324 90.9668 87.4041 91.9853 86.32 92.8394C85.2358 93.6936 84.0203 94.3671 82.6733 94.8599C81.3592 95.3527 79.9629 95.5991 78.4845 95.5991C76.7433 95.5991 75.1007 95.2706 73.5566 94.6135C72.0125 93.9564 70.6655 93.053 69.5157 91.9031C68.3658 90.7533 67.4624 89.4063 66.8053 87.8622C66.1482 86.3181 65.8197 84.6755 65.8197 82.9343C65.8197 81.1931 66.1482 79.5504 66.8053 78.0063C67.4624 76.4622 68.3658 75.1317 69.5157 74.0147C70.6655 72.8648 72.0125 71.9614 73.5566 71.3043C75.1007 70.6472 76.7433 70.3187 78.4845 70.3187C79.9629 70.3187 81.3592 70.5651 82.6733 71.0579C84.0203 71.5178 85.2358 72.1913 86.32 73.0784C87.4041 73.9325 88.324 74.951 89.0796 76.1337C89.8681 77.3164 90.4266 78.5977 90.7551 79.9775H84.1517C83.6589 78.8276 82.9033 77.8913 81.8848 77.1686C80.8664 76.4129 79.733 76.0351 78.4845 76.0351C77.5975 76.0351 76.7598 76.2158 75.9713 76.5772C75.2157 76.9386 74.5422 77.4314 73.9508 78.0556C73.3923 78.6798 72.9488 79.419 72.6203 80.2732C72.2917 81.0945 72.1275 81.9815 72.1275 82.9343C72.1275 83.887 72.2917 84.7905 72.6203 85.6446C72.9488 86.466 73.3923 87.1887 73.9508 87.8129C74.5422 88.4371 75.2157 88.9299 75.9713 89.2913C76.7598 89.6527 77.5975 89.8334 78.4845 89.8334ZM117.638 70.4665V93.6772C117.638 94.2357 117.458 94.6956 117.096 95.057C116.735 95.4184 116.275 95.5991 115.716 95.5991C115.158 95.5991 114.698 95.402 114.337 95.0077L111.626 92.2481C110.641 93.3651 109.474 94.2028 108.127 94.7613C106.78 95.3198 105.417 95.5991 104.037 95.5991C102.822 95.5991 101.622 95.3856 100.44 94.9585C99.2899 94.5314 98.255 93.8907 97.3351 93.0366C96.4481 92.1495 95.7253 91.049 95.1668 89.7348C94.6412 88.4207 94.3783 86.8766 94.3783 85.1026L94.2305 70.4665H100.538V83.8706C100.538 84.9547 100.686 85.9075 100.982 86.7288C101.31 87.5173 101.721 88.1743 102.214 88.7C102.707 89.2256 103.265 89.6198 103.889 89.8827C104.546 90.1455 105.203 90.2769 105.86 90.2769C106.55 90.2769 107.207 90.1455 107.832 89.8827C108.489 89.6198 109.08 89.2256 109.606 88.7C110.131 88.1415 110.542 87.468 110.838 86.6795C111.166 85.891 111.33 84.9711 111.33 83.9199V70.4665H117.638ZM153.181 81.998C153.181 79.8297 152.721 78.2199 151.801 77.1686C150.914 76.1173 149.912 75.5916 148.795 75.5916C148.236 75.5916 147.678 75.723 147.119 75.9859C146.594 76.2487 146.117 76.6593 145.69 77.2178C145.296 77.7435 144.967 78.417 144.705 79.2383C144.442 80.0268 144.31 80.9467 144.31 81.998L144.458 95.402H138.15V81.998C138.15 79.8297 137.691 78.2199 136.771 77.1686C135.884 76.1173 134.882 75.5916 133.765 75.5916C133.206 75.5916 132.648 75.723 132.089 75.9859C131.563 76.2487 131.087 76.6593 130.66 77.2178C130.266 77.7435 129.937 78.417 129.674 79.2383C129.412 80.0268 129.28 80.9467 129.28 81.998V95.402H122.972V72.1913C122.972 71.6657 123.153 71.2222 123.514 70.8608C123.909 70.4665 124.369 70.2694 124.894 70.2694C125.453 70.2694 125.929 70.4665 126.323 70.8608L128.935 73.5712C129.855 72.487 130.906 71.6657 132.089 71.1072C133.305 70.5487 134.537 70.2694 135.785 70.2694C137.231 70.2694 138.594 70.6472 139.875 71.4029C141.189 72.1585 142.241 73.3083 143.029 74.8524C143.949 73.3083 145.099 72.1585 146.479 71.4029C147.891 70.6472 149.337 70.2694 150.815 70.2694C151.899 70.2694 152.951 70.483 153.969 70.9101C155.02 71.3372 155.94 71.9942 156.729 72.8812C157.517 73.7354 158.158 74.8196 158.651 76.1337C159.144 77.4478 159.39 78.9919 159.39 80.766H159.341L159.488 95.402H153.181V81.998ZM170.124 73.5712C171.142 72.487 172.309 71.6821 173.623 71.1565C174.97 70.598 176.366 70.3187 177.812 70.3187C179.191 70.3187 180.555 70.5815 181.902 71.1072C183.282 71.6328 184.497 72.4213 185.548 73.4726C186.6 74.5239 187.454 75.8544 188.111 77.4642C188.768 79.0412 189.097 80.8974 189.097 83.0328C189.097 84.774 188.768 86.4167 188.111 87.9608C187.454 89.472 186.551 90.8026 185.401 91.9524C184.251 93.1023 182.904 94.0057 181.36 94.6628C179.848 95.3198 178.222 95.6484 176.481 95.6484C174.74 95.6484 173.097 95.3198 171.553 94.6628C170.009 94.0057 168.662 93.1023 167.512 91.9524C166.362 90.8026 165.459 89.472 164.802 87.9608C164.145 86.4167 163.816 84.774 163.816 83.0328V60.0686H170.124V73.5712ZM176.481 89.8827C177.335 89.8827 178.14 89.702 178.896 89.3406C179.684 88.9792 180.358 88.5028 180.916 87.9115C181.508 87.2873 181.968 86.5645 182.296 85.7432C182.625 84.889 182.789 83.9856 182.789 83.0328C182.789 82.0801 182.625 81.1931 182.296 80.3717C181.968 79.5176 181.508 78.7784 180.916 78.1542C180.358 77.5299 179.684 77.0371 178.896 76.6758C178.14 76.3144 177.335 76.1337 176.481 76.1337C175.594 76.1337 174.773 76.3144 174.017 76.6758C173.261 77.0371 172.588 77.5299 171.997 78.1542C171.438 78.7455 170.978 79.4683 170.617 80.3224C170.288 81.1438 170.124 82.0308 170.124 82.9835V83.0328C170.124 83.9856 170.288 84.889 170.617 85.7432C170.945 86.5645 171.389 87.2873 171.947 87.9115C172.539 88.5028 173.212 88.9792 173.968 89.3406C174.756 89.702 175.594 89.8827 176.481 89.8827ZM198.555 84.3141C198.719 85.234 198.999 86.0389 199.393 86.7288C199.82 87.3858 200.329 87.9443 200.921 88.4043C201.512 88.8314 202.169 89.1599 202.892 89.3899C203.615 89.587 204.337 89.6856 205.06 89.6856C206.309 89.6856 207.491 89.3735 208.608 88.7492C209.758 88.125 210.579 87.1887 211.072 85.9403L217.084 86.7781C216.69 88.2893 216.082 89.6034 215.261 90.7204C214.472 91.8046 213.553 92.7245 212.501 93.4801C211.45 94.2028 210.284 94.7449 209.002 95.1063C207.754 95.4677 206.489 95.6484 205.208 95.6484C203.598 95.6484 202.005 95.3856 200.428 94.8599C198.884 94.3014 197.487 93.4801 196.239 92.3959C195.024 91.3118 194.038 89.9812 193.282 88.4043C192.527 86.8273 192.149 85.004 192.149 82.9343C192.149 80.8645 192.494 79.0576 193.184 77.5135C193.907 75.9366 194.843 74.6225 195.993 73.5712C197.175 72.487 198.506 71.6821 199.984 71.1565C201.496 70.598 203.023 70.3187 204.567 70.3187C206.111 70.3187 207.606 70.598 209.052 71.1565C210.53 71.6821 211.844 72.487 212.994 73.5712C214.177 74.6553 215.13 76.0351 215.852 77.7106C216.608 79.3533 217.019 81.308 217.084 83.5749V84.3141H198.555ZM210.234 79.6325C209.742 78.417 208.986 77.5135 207.968 76.9222C206.949 76.298 205.865 75.9859 204.715 75.9859C203.565 75.9859 202.481 76.298 201.463 76.9222C200.444 77.5135 199.656 78.417 199.097 79.6325H210.234ZM227.303 73.6204C228.288 72.5363 229.438 71.715 230.752 71.1565C232.067 70.598 233.43 70.3023 234.843 70.2694V76.1337C232.576 76.1337 230.802 76.6101 229.52 77.5628C228.239 78.4827 227.599 79.9611 227.599 81.998V95.402H221.291V72.1913C221.291 71.6657 221.471 71.2222 221.833 70.8608C222.227 70.4665 222.687 70.2694 223.213 70.2694C223.771 70.2694 224.248 70.4665 224.642 70.8608L227.303 73.6204Z" fill="white"/>
</svg>
