<svg width="228" height="156" viewBox="0 0 228 156" fill="none" xmlns="http://www.w3.org/2000/svg">
<path d="M188.185 43.9459L138.715 44.019L62.3488 43.9639C53.6572 43.9576 45.8373 40.564 39.1422 35.4938C34.1308 31.3547 30.2821 26.5971 27.2141 20.8919L15.9941 0.0274438L140.075 1.06704e-06C150.97 -0.00241308 161.021 4.09169 168.621 11.7494C172.481 15.5968 175.381 19.913 177.906 24.7561L188.185 43.9459Z" fill="#55E461"/>
<path d="M227.453 155.927L177.983 156L101.616 155.945C92.9248 155.939 85.1049 152.545 78.4098 147.475C73.3984 143.336 69.5497 138.578 66.4817 132.873L55.2617 112.009L179.342 111.981C190.237 111.979 200.288 116.073 207.889 123.731C211.749 127.578 214.649 131.894 217.174 136.738L227.453 155.927Z" fill="#55E461"/>
<path d="M109.594 99.7448L47.76 99.2868C38.0871 99.2151 29.2467 95.8622 22.0072 89.7144C17.9706 86.1009 14.5908 82.2105 11.9972 77.4206L0 55.2637L63.0321 55.8364C74.6533 55.942 85.0722 61.5354 92.4523 70.1806C95.2183 73.4361 97.2625 76.7342 99.2528 80.4958L109.594 99.7448Z" fill="#55E461"/>
</svg>
